<svg width="16" height="16" viewBox="0 0 16 16" fill="none" xmlns="http://www.w3.org/2000/svg">
<path d="M14.2617 10.8124V3.1036C14.2617 2.3372 13.6358 1.76878 12.8758 1.83265H12.8375C11.4963 1.94761 9.45891 2.63099 8.32207 3.3463L8.2135 3.41655C8.02828 3.53151 7.72172 3.53151 7.5365 3.41655L7.37684 3.32075C6.24 2.61183 4.20902 1.93483 2.86781 1.82626C2.10779 1.76239 1.48828 2.3372 1.48828 3.09722V10.8124C1.48828 11.4255 1.98645 12.0003 2.59957 12.0769L2.78479 12.1025C4.1707 12.2877 6.31025 12.9902 7.5365 13.6608L7.56205 13.6736C7.73449 13.7694 8.00912 13.7694 8.17518 13.6736C9.40143 12.9966 11.5474 12.2877 12.9397 12.1025L13.1504 12.0769C13.7636 12.0003 14.2617 11.4255 14.2617 10.8124Z" stroke="#7676B2" stroke-width="0.958008" stroke-linecap="round" stroke-linejoin="round"/>
<path d="M7.875 3.62744V13.2075" stroke="#7676B2" stroke-width="0.958008" stroke-linecap="round" stroke-linejoin="round"/>
<path d="M5.16064 5.54346H3.72363" stroke="#7676B2" stroke-width="0.958008" stroke-linecap="round" stroke-linejoin="round"/>
<path d="M5.63965 7.45947H3.72363" stroke="#7676B2" stroke-width="0.958008" stroke-linecap="round" stroke-linejoin="round"/>
</svg>
