<svg width="16" height="17" viewBox="0 0 16 17" fill="none" xmlns="http://www.w3.org/2000/svg">
<g id="vuesax/linear/category-2">
<g id="category-2">
<path id="Vector" d="M11.0684 7.07812H12.3457C13.623 7.07812 14.2617 6.43945 14.2617 5.16211V3.88477C14.2617 2.60742 13.623 1.96875 12.3457 1.96875H11.0684C9.79102 1.96875 9.15234 2.60742 9.15234 3.88477V5.16211C9.15234 6.43945 9.79102 7.07812 11.0684 7.07812Z" stroke="#232340" stroke-width="0.958008" stroke-miterlimit="10" stroke-linecap="round" stroke-linejoin="round"/>
<path id="Vector_2" d="M3.4043 14.7422H4.68164C5.95898 14.7422 6.59766 14.1035 6.59766 12.8262V11.5488C6.59766 10.2715 5.95898 9.63281 4.68164 9.63281H3.4043C2.12695 9.63281 1.48828 10.2715 1.48828 11.5488V12.8262C1.48828 14.1035 2.12695 14.7422 3.4043 14.7422Z" stroke="#232340" stroke-width="0.958008" stroke-miterlimit="10" stroke-linecap="round" stroke-linejoin="round"/>
<path id="Vector_3" d="M4.04297 7.07812C5.45388 7.07812 6.59766 5.93435 6.59766 4.52344C6.59766 3.11252 5.45388 1.96875 4.04297 1.96875C2.63205 1.96875 1.48828 3.11252 1.48828 4.52344C1.48828 5.93435 2.63205 7.07812 4.04297 7.07812Z" stroke="#232340" stroke-width="0.958008" stroke-miterlimit="10" stroke-linecap="round" stroke-linejoin="round"/>
<path id="Vector_4" d="M11.707 14.7422C13.1179 14.7422 14.2617 13.5984 14.2617 12.1875C14.2617 10.7766 13.1179 9.63281 11.707 9.63281C10.2961 9.63281 9.15234 10.7766 9.15234 12.1875C9.15234 13.5984 10.2961 14.7422 11.707 14.7422Z" stroke="#232340" stroke-width="0.958008" stroke-miterlimit="10" stroke-linecap="round" stroke-linejoin="round"/>
</g>
</g>
</svg>
