<svg width="16" height="17" viewBox="0 0 16 17" fill="none" xmlns="http://www.w3.org/2000/svg">
<path d="M5.63965 13.1152H5.32031C2.76562 13.1152 1.48828 12.4766 1.48828 9.2832V6.08984C1.48828 3.53516 2.76562 2.25781 5.32031 2.25781H10.4297C12.9844 2.25781 14.2617 3.53516 14.2617 6.08984V9.2832C14.2617 11.8379 12.9844 13.1152 10.4297 13.1152H10.1104C9.91236 13.1152 9.72076 13.211 9.59941 13.3707L8.64141 14.648C8.21988 15.2101 7.53012 15.2101 7.10859 14.648L6.15059 13.3707C6.0484 13.2302 5.81209 13.1152 5.63965 13.1152Z" stroke="#7676B2" stroke-width="0.958008" stroke-miterlimit="10" stroke-linecap="round" stroke-linejoin="round"/>
<path d="M10.4274 8.00586H10.4331" stroke="#7676B2" stroke-width="1.27734" stroke-linecap="round" stroke-linejoin="round"/>
<path d="M7.8721 8.00586H7.87784" stroke="#7676B2" stroke-width="1.27734" stroke-linecap="round" stroke-linejoin="round"/>
<path d="M5.3168 8.00586H5.32254" stroke="#7676B2" stroke-width="1.27734" stroke-linecap="round" stroke-linejoin="round"/>
</svg>
