<svg width="13" height="15" viewBox="0 0 13 15" fill="none" xmlns="http://www.w3.org/2000/svg">
<g id="Notification">
<path id="Path_425" fill-rule="evenodd" clip-rule="evenodd" d="M1.21635 8.4031V8.26324C1.23687 7.84945 1.36948 7.44852 1.60053 7.1018C1.9851 6.68529 2.24836 6.17489 2.36269 5.62415C2.36269 5.19849 2.36269 4.76675 2.39987 4.34109C2.59196 2.29184 4.6182 0.875 6.61966 0.875H6.66923C8.67069 0.875 10.6969 2.29184 10.8952 4.34109C10.9324 4.76675 10.8952 5.19849 10.9262 5.62415C11.0421 6.17617 11.3051 6.68816 11.6884 7.10788C11.9211 7.45154 12.054 7.851 12.0725 8.26324V8.39702C12.0864 8.95295 11.8949 9.49504 11.5335 9.92332C11.0558 10.4241 10.4077 10.7356 9.71169 10.799C7.67087 11.0179 5.61182 11.0179 3.571 10.799C2.87582 10.7329 2.2286 10.4218 1.74924 9.92332C1.39337 9.49471 1.20448 8.95585 1.21635 8.4031Z" stroke="#7676B2" stroke-width="0.958008" stroke-linecap="round" stroke-linejoin="round"/>
<path id="Path_421" d="M5.08289 12.9152C5.40176 13.3154 5.87002 13.5744 6.38405 13.6349C6.89807 13.6954 7.41546 13.5524 7.82172 13.2374C7.94667 13.1443 8.0591 13.036 8.15633 12.9152" stroke="#7676B2" stroke-width="0.958008" stroke-linecap="round" stroke-linejoin="round"/>
</g>
</svg>
