<svg width="16" height="16" viewBox="0 0 16 16" fill="none" xmlns="http://www.w3.org/2000/svg">
<path d="M7.875 9.99023C8.93319 9.99023 9.79102 9.13241 9.79102 8.07422C9.79102 7.01603 8.93319 6.1582 7.875 6.1582C6.81681 6.1582 5.95898 7.01603 5.95898 8.07422C5.95898 9.13241 6.81681 9.99023 7.875 9.99023Z" stroke="#7676B2" stroke-width="0.958008" stroke-miterlimit="10" stroke-linecap="round" stroke-linejoin="round"/>
<path d="M1.48828 8.63617V7.51211C1.48828 6.84789 2.03115 6.29863 2.70176 6.29863C3.85775 6.29863 4.33037 5.48113 3.74918 4.47841C3.41707 3.90361 3.61506 3.15636 4.19625 2.82425L5.30115 2.19197C5.8057 1.89179 6.45715 2.07062 6.75732 2.57517L6.82758 2.69652C7.40238 3.69923 8.34762 3.69923 8.92881 2.69652L8.99906 2.57517C9.29924 2.07062 9.95068 1.89179 10.4552 2.19197L11.5601 2.82425C12.1413 3.15636 12.3393 3.90361 12.0072 4.47841C11.426 5.48113 11.8986 6.29863 13.0546 6.29863C13.7188 6.29863 14.2681 6.8415 14.2681 7.51211V8.63617C14.2681 9.30039 13.7252 9.84964 13.0546 9.84964C11.8986 9.84964 11.426 10.6671 12.0072 11.6699C12.3393 12.2511 12.1413 12.9919 11.5601 13.324L10.4552 13.9563C9.95068 14.2565 9.29924 14.0777 8.99906 13.5731L8.92881 13.4518C8.354 12.449 7.40877 12.449 6.82758 13.4518L6.75732 13.5731C6.45715 14.0777 5.8057 14.2565 5.30115 13.9563L4.19625 13.324C3.61506 12.9919 3.41707 12.2447 3.74918 11.6699C4.33037 10.6671 3.85775 9.84964 2.70176 9.84964C2.03115 9.84964 1.48828 9.30039 1.48828 8.63617Z" stroke="#7676B2" stroke-width="0.958008" stroke-miterlimit="10" stroke-linecap="round" stroke-linejoin="round"/>
</svg>
