<svg width="16" height="16" viewBox="0 0 16 16" fill="none" xmlns="http://www.w3.org/2000/svg">
<path d="M13.6741 6.03061V10.3991C13.6741 11.1144 13.2909 11.7787 12.6714 12.1427L8.87764 14.3333C8.25813 14.691 7.49172 14.691 6.86582 14.3333L3.07211 12.1427C2.4526 11.785 2.0694 11.1208 2.0694 10.3991V6.03061C2.0694 5.3153 2.4526 4.65105 3.07211 4.28701L6.86582 2.09637C7.48533 1.73871 8.25174 1.73871 8.87764 2.09637L12.6714 4.28701C13.2909 4.65105 13.6741 5.30891 13.6741 6.03061Z" stroke="#7676B2" stroke-width="0.958008" stroke-linecap="round" stroke-linejoin="round"/>
<path d="M7.87495 7.57605C8.6968 7.57605 9.36305 6.90979 9.36305 6.08793C9.36305 5.26607 8.6968 4.59985 7.87495 4.59985C7.05309 4.59985 6.38684 5.26607 6.38684 6.08793C6.38684 6.90979 7.05309 7.57605 7.87495 7.57605Z" stroke="#7676B2" stroke-width="0.958008" stroke-linecap="round" stroke-linejoin="round"/>
<path d="M10.4297 11.191C10.4297 10.0414 9.28646 9.10901 7.875 9.10901C6.46354 9.10901 5.32031 10.0414 5.32031 11.191" stroke="#7676B2" stroke-width="0.958008" stroke-linecap="round" stroke-linejoin="round"/>
</svg>
